<svg xmlns="http://www.w3.org/2000/svg" width="512" height="512" viewBox="0 0 512 512" role="img" aria-label="Developer icon">
  <defs>
    <linearGradient id="bg" x1="64" y1="64" x2="448" y2="448" gradientUnits="userSpaceOnUse">
      <stop offset="0" stop-color="#111827"></stop>
      <stop offset="1" stop-color="#0b1020"></stop>
    </linearGradient>

    <linearGradient id="accent" x1="160" y1="160" x2="352" y2="352" gradientUnits="userSpaceOnUse">
      <stop offset="0" stop-color="#22c55e"></stop>
      <stop offset="1" stop-color="#60a5fa"></stop>
    </linearGradient>

    <filter id="shadow" x="-20%" y="-20%" width="140%" height="140%">
      <feDropShadow dx="0" dy="10" stdDeviation="14" flood-opacity="0.35"></feDropShadow>
    </filter>
  </defs>

  <!-- Rounded background -->
  <rect x="56" y="56" width="400" height="400" rx="96" fill="url(#bg)" filter="url(#shadow)"></rect>

  <!-- Subtle border -->
  <rect x="56" y="56" width="400" height="400" rx="96" fill="none" stroke="#1f2937" stroke-width="6"></rect>

  <!-- Terminal top dots -->
  <circle cx="156" cy="146" r="10" fill="#ef4444"></circle>
  <circle cx="192" cy="146" r="10" fill="#f59e0b"></circle>
  <circle cx="228" cy="146" r="10" fill="#22c55e"></circle>

  <!-- Code brackets and slash -->
  <g fill="none" stroke="url(#accent)" stroke-width="22" stroke-linecap="round" stroke-linejoin="round">
    <!-- < -->
    <path d="M210 210 L150 256 L210 302"></path>
    <!-- /> slash -->
    <path d="M260 206 L232 306"></path>
    <!-- > -->
    <path d="M302 210 L362 256 L302 302"></path>
  </g>

  <!-- Cursor underscore -->
  <rect x="180" y="332" width="152" height="22" rx="11" fill="url(#accent)"></rect>

  <!-- Tiny spark pixels -->
  <g fill="#93c5fd" opacity="0.9">
    <rect x="350" y="190" width="10" height="10" rx="2"></rect>
    <rect x="370" y="210" width="10" height="10" rx="2"></rect>
    <rect x="140" y="320" width="10" height="10" rx="2"></rect>
  </g>
</svg>
